<svg xmlns="http://www.w3.org/2000/svg" width="102" height="117" viewBox="0 0 102 117"><g fill="gray"><path d="M42.7 72.4c2.7.8 5.5 1.2 8.4 1.2h.2c2.9 0 5.7-.4 8.4-1.2 2.9-1 5.6-3 7.2-5.5 2.7-4 5.2-11.6 5.3-19.3-.2-7.6-2.6-15.3-5.4-19.3-1.6-2.5-4.3-4.5-7.2-5.5-2.7-.8-5.6-1.2-8.5-1.2-2.9 0-5.8.4-8.5 1.2-2.9 1-5.5 3-7.2 5.5-2.7 4-5.2 11.6-5.3 19.3.1 7.6 2.6 15.3 5.3 19.3 1.8 2.5 4.4 4.5 7.3 5.5zM31.8 47.6c-.1-5.8 1.7-12.7 3.4-16.5 1.9-4.3 4.7-6.8 8.9-8 2.3-.6 4.6-.9 7.1-.9 2.4 0 4.8.3 7.1.9 4.2 1.1 7.1 3.7 8.9 8 1.7 3.7 3.4 10.7 3.3 16.5.1 5.8-1.7 12.7-3.3 16.5-1.9 4.2-4.7 6.8-8.9 8-2.3.6-4.6.9-7.1.9-2.4 0-4.8-.3-7.1-.9-4.2-1.1-7.1-3.7-8.9-8-1.7-3.8-3.5-10.7-3.4-16.5z"/><path d="M45.3 66c1.9.5 3.9.8 5.9.8h.1c2 0 4-.3 5.9-.8 2-.6 3.6-1.9 4.4-3.8 1.8-3.8 2.9-9.2 2.9-14.6S63.3 36.8 61.6 33c-.8-1.8-2.4-3.2-4.4-3.8-1.8-.5-3.9-.8-5.9-.8h-.1c-2 0-4 .3-5.9.8-2 .6-3.6 1.9-4.4 3.8-1.8 3.8-2.9 9.3-2.9 14.6 0 5.4 1.2 10.8 2.9 14.6.8 1.9 2.4 3.2 4.4 3.8zm-.6-10c-.4.3-.7.3-1.1.3-.1 0-.3 0-.5-.1-.3-.1-.7-.2-.9-.6v-.2l-.1-.1v-3.8c0-.5-.2-.5-.6-.7h.1l1.5-.5c.2.2.3.5.3.8v2.8c0 .2.2.3.4.3s.4-.1.4-.3v-2.8c0-.4.4-.8.7-.9.4-.2.9-.1 1.3.1.7.3.6 1.6.6 2.6-.3-.2-.3-.2-.6-.3-.2 0-.5 0-.6.1-.2.2-.2.4-.2.7-.2 1.3-.1 2.2-.7 2.6zm4.7 7.9c-.5.4-1.4.5-2 .1-.3-.2-.6-.5-.8-.8-.1-.3-.2-.4-.2-.7h3.8c0 .6-.3 1.1-.8 1.4zm2.6.2h-1.3v-2.3h-2v-.9h2l.6-.8c.3.4.3.4.7.8h2v.9h-2v2.3zm.9-8.3c.7 0 1.3.6 1.6 1.2.3.6.2 1.4-.2 1.9-.5.6-1.2.9-2 .8-.5-.1-1-.4-1.3-.9.4-.1 1-.4 1.1-.8 0-.6.4-1.1.7-1.6.1-.2.2-.3.1-.6zm.6-.5v-5.7h1.9v5.7h-1.9zm2.6 8c-.2.3-.5.6-.8.8-.6.3-1.5.2-2-.1-.5-.3-.8-.9-.8-1.4h3.8c0 .3-.1.4-.2.7zm.3-12.9c.3-.2.6-.5.9-.7 0 .7-.1 1.5.2 1.9l2.4 2.4c.3.3.5.8.3 1.2-.1.2-.2.4-.4.6 0-.4-.2-.6-.4-.9-1.1-1-2.9-2.5-3.1-3.1.1-.5.1-1 .1-1.4zm2.6 7.9l-.5.5-.5-.6v-1.6c-.7.3-.5 1.3-.5 2.1-.4-.3-.6-.5-1-.9-.2-1 .4-1.5.8-2.2l1.7 1.6v1.1zm1.4-.3c-.3.2-.6.5-.9.7 0-.7.1-1.5-.2-1.9-.9-.9-1.7-1.6-2.4-2.4-.3-.3-.5-.8-.3-1.2.1-.2.2-.4.4-.6 0 .4.2.6.4.9 1.1 1 2.9 2.5 3.1 3.1 0 .4-.1.9-.1 1.4zm-.8-5.3L57.8 51v-1l.5-.5.5.6v1.6c.7-.3.5-1.3.5-2.1.4.3.6.5 1 .9.3 1-.3 1.5-.7 2.2zm1.5-4.2h-6.6v-1.9h6.6v1.9zm-3-4.6c.1 0 .3-.1.3-.2v-3.4c.5-.1.9-.3 1.4-.4v2c.3 0 .4-.1.7-.1v2.7l-.8.1-.3 1.1h-3l-.4-1c-.7-.1-.8-.1-1.5-.1.7-.9 1.4-1.8 1.9-2.7v-1.4l1.3-.2v3.3c0 .2.2.3.4.3zm-1.8-12.5c.3-.1.8-.1 1.1.2.4.3.5.7.4 1.2-.3.9-1.3 1.1-2.2 1.3l-.5-.6c.3-.8.3-1.7 1.2-2.1zm-2.6 3.8l.3.6-.9.9-.5-.5c.6-.4.6-.5 1.1-1zm-10.5-1.3c.2.4.4.8.9 1-.1-.2-.3-.5-.3-.7-.2-.5-.2-1.2.1-1.6.2-.3.5-.5.9-.6-.1.4-.2.9 0 1.3l.4-.4c.1-.1.1-.1.2-.1.3.7.7 1.7.5 2.5l-.1.4c-.1-.6-.1-.9-.5-1.1-.1.3.2.6.2 1 .2.7 0 1.4-.4 1.7H44c-.9-.9-1-2.2-.8-3.4zm2.5 4.5h-.6l-.2 2.1c-.2-.2-.5-.4-.8-.5-.1-.9-.2-.9-.2-1.6h-.6v-.6h2.5l-.1.6zm-1.6 2.1c1 .5 1.6 1.6 2.6 2.4.2.2.5.5.7.6.6-.5 1.1-1 1.5-1.8.3-.5.8-.7 1.3-.7l.4-.4-.2-1.1c-.4-.5-.7-1-1-1.6.1-.6.2-1.4.9-1.7.4-.3.8.3 1.1 0 .3-.1.5 0 .6.2.3.5.6.9.6 1.4l-.6 1.5c-.1.1-.2.1-.3.2.1.2.1.5.3.6.2 0 .4.1.6 0 .2-.6.8-.8 1.3-1l1.1-.7c-.2-.8.4-1.6.1-2.4-.6-.3-.8-1-.9-1.6.1-.3.3-.7.5-1 .6.7 1.2 1.4 1.3 2.3.1 1.1.2 2.2.1 3.4-.6.6-1.3.9-2 1.4l-.5 1c-.1 1-.3 1.9-.5 2.8.4 1.2.9 2.7.6 3.8-.3.6-.9 1-1.3 1.3l-1.1.9c1.1 1.2.9 2.7.9 4.5 0 .4.8.8.4 1.3-.3.6-.9 1-.8 1.7-.3.6-1.2.7-1.6.7-.1 0-.1-.1-.1-.1.1-.3.3-.5.4-.8.4-.6.2-1.5.7-2-.4-1.3-1-2.6-1.2-4v-.1c-.3.7-.2 1.3 0 1.8-1.1 1.4-2.3 2.7-2.3 4.6-.5.8-1.2 1.6-1.5 2.5-.1.1-.3 0-.5-.1-.3-.2-.4-.4-.5-.7-.3-1.2 1.2-1.7 1.6-2.7.3-1.7.4-3.5 1.5-4.8.1-2.5.9-4.7 2.7-6.5-.1-.6-.3-1.1-.5-1.6-.2 0-.4-.1-.6-.2-.2-.2-.2-.4-.3-.6-.6.8-1.4 1.6-2.2 2.1-.2.1-.3-.1-.6-.4-1-.8-1.2-2.7-2.8-2.6-.7-.2-.7-1.1-.8-1.7.1-.3.6-.3.9-.1zm.7 2.5c0 1.1 0 1.1-.1 2.3h-.6v-.2c0-.9-.1-1.5-.1-2.4.3-.1.6.1.8.3zm-3.3 3.6h6.6v1.9h-6.6v-1.9zm11.4 24.3c.4-.5.9-.8 1.3-1.2.3-.4.4-.9.2-1.4-.2-.4-.6-.6-1-.7-.5 0-1 .1-1.3.4-.2.3-.3.7-.3 1.1h.7c0-.3 0-.5.2-.7.1-.1.3-.2.6-.1.1 0 .3.1.3.3.1.3.1.6-.1.8-.6.7-1.7 1.2-1.7 2.3l2.9-.2v-.6h-1.8zM44.6 67c-.3.3-.7.2-1.1.1l-.2.5c.3.1.7.2 1 .3l-.8 2.5.8.2 1.2-3.6-.6-.2c-.2.1-.2.1-.3.2zm14.5 1.3h-.2c.2-.2.5-.5.4-.8-.1-.4-.3-.6-.7-.7-.3-.1-.6-.1-1 0-.3.1-.6.2-.9.4-.2.3-.4.6-.2 1 .1.3.4.5.7.6H57c-.3.3-.3.6-.3 1 .1.4.4.7.8.8.3.1.7.1 1 0 .3-.1.7-.2.9-.5.3-.3.4-.7.3-1.1 0-.3-.2-.6-.6-.7zm-1.8-.3c-.1-.2-.1-.4.1-.6.1-.1.2-.2.4-.2h.4c.2.1.3.3.3.5 0 .1-.1.3-.2.3-.1.1-.2.1-.4.2h-.4l-.2-.2zm1.6 1.7c-.1.1-.3.2-.5.2s-.4.1-.5 0c-.2-.1-.3-.2-.4-.4-.1-.3 0-.5.2-.7.1-.1.2-.1.4-.2h.4c.3 0 .4.2.5.5.1.3 0 .5-.1.6zm-9.4-.2l-.2-.1c.3-.1.6-.3.6-.7.1-.4-.1-.7-.4-.9-.3-.2-.6-.3-.9-.3-.3 0-.7 0-1 .2-.3.2-.5.5-.5.9 0 .3.3.6.5.8l-.2.1c-.4.2-.5.5-.5.9s.2.8.5 1c.3.2.6.3 1 .3s.7 0 1-.2c.4-.2.6-.5.6-1s-.1-.8-.5-1zm-1.4-1.4c.1-.1.3-.1.4-.1.2 0 .3.1.4.1.2.1.2.4.2.6 0 .1-.1.2-.2.3-.1 0-.3.1-.4.1-.1 0-.3 0-.4-.1-.1-.1-.2-.2-.2-.3 0-.2 0-.5.2-.6zm1.1 2.3c0 .2-.1.3-.3.4-.1.1-.3.1-.5.1s-.4-.1-.5-.2c-.2-.1-.2-.3-.2-.5 0-.3.2-.5.4-.6.1 0 .3-.1.4 0 .1 0 .3 0 .4.1.2.2.3.4.3.7zm14.009-36.088l3.582-1.542.316.734-3.582 1.543zM54.5 27.5l1.7-3.7-.8-.1c-.4.9-.8 2-1.1 2.8-.2-.8-.4-1.9-.5-2.9l-.8-.1.9 4h.6zm-13.6 3.1l-.5-.3-1 1.7-1-.5.9-1.5-.6-.4-.9 1.6-.7-.4 1-1.8-.5-.3-1.4 2.5 3.3 1.9zM36.7 46c-.2-.4-.6-.6-1.1-.6-.4 0-.7.3-.8.7-.1-.2-.3-.5-.6-.6-.4 0-.8.1-.9.4-.3.3-.1 1.8-.2 2.6h3.8v-.3c-.1-1.4 0-1.6-.2-2.2zm-2.2 1.8h-.9c0-.9-.1-1.4.4-1.4.3 0 .4 0 .5.2v1.2zm1.7 0h-1.1c0-.9-.1-1.4.4-1.5.2 0 .4 0 .5.1.2.2.2.6.2 1.4zm28.1-10.2l.2.7 3.1-.8.3 1.2.6-.2-.8-3-.6.1.3 1.2zM46.5 27.4c.4.2.8.3 1.2.2l-.1-.6h-.4c-.2 0-.4-.2-.5-.4l-.4-2.8-.8.2.4 2.8c.1.2.2.4.6.6z"/><path d="M47.9 26.9c-.1.1-.2.1-.3.1l.1.6c.4-.1.8-.2 1.1-.6.2-.3.3-.5.2-.8l-.4-2.8-.8.1.4 2.8c.1.3-.1.5-.3.6zM65 41.1l.9.2.2 1.4-.8.3.1.8 3.6-1.9-.1-.8-4-.8.1.8zm3.2.5l-1.5.7-.1-1 1.6.3zm-.4 3.9c-.2.1-.4.3-.5.6-.2.5-.1 1.3-.6 1.7-.1.1-.4.1-.5 0-.3-.2-.3-.8-.2-1.2.1-.2.3-.4.6-.4l-.1-.7c-.4 0-.7.2-1 .5-.4.6-.4 1.6 0 2.2.3.4.7.6 1.2.5 1.1-.2.8-1.6 1.3-2.2.1-.1.3-.1.4-.1.3.1.3.4.4.7 0 .3 0 .6-.3.7h-.4v.7c.4 0 .9-.3 1-.7.2-.6.2-1.5-.3-2-.1-.4-.6-.4-1-.3zm-31.7-3l-2.8-.5-.1.8 2.8.4c.3 0 .5 0 .8-.2.3-.3.5-.7.6-1.1l-.6-.1c0 .1-.1.2-.1.3-.2.2-.4.4-.6.4z"/><path d="M36.4 40.2l-2.8-.4-.1.8 2.8.4c.2 0 .4.2.4.4v.4l.6.1c.1-.4 0-.9-.2-1.2-.1-.3-.4-.4-.7-.5zm6-10.8l-.2-.9 1.2-.7.7.6.7-.4-3.2-2.6-.7.4.8 4 .7-.4zm-.8-3.1l1.3 1.1-.8.5-.5-1.6zm18.3 2.1l-1.9-.8.4-1 1.6.7.3-.6-1.6-.7.3-.8 1.9.8.2-.6-2.6-1.1-1.5 3.6 2.6 1.1zm-21.7 8.8l-1.5-.4h-.1c.1-.4.2-.8.3-.9.3-.6 1.2 0 1.6-.1l.2-.8c-.7 0-1.5-.6-2 .2 0-.3 0-.5-.2-.7-.2-.2-.5-.3-.9-.3-.9.1-1 1.1-1.4 2.7L38 38l.2-.8zm-2.1-.6l-1-.3c.2-.7.3-1.3.8-1.3.2 0 .3.1.4.2.2.3-.1.8-.2 1.4zm25.1-6.1l1.2-.9h.1c.2.3.5.7.5.8.3.6-.7 1-.9 1.4l.5.6c.4-.6 1.4-.9 1-1.7.2.2.4.3.7.2.3 0 .6-.3.8-.5.4-.8-.3-1.4-1.3-2.7L60.7 30l.5.5zm2.6-1.9c.4.6.9 1 .6 1.4-.1.1-.2.2-.4.2-.3 0-.6-.5-1-1l.8-.6zM29.3 81.7h-1.5v1.6h1.6c.4 0 .6-.4.6-.8s-.3-.8-.7-.8zm-.1-.9c.4 0 .7-.3.7-.7 0-.4-.3-.6-.7-.6h-1.4v1.4c.5-.1 1-.1 1.4-.1zm18.4-1.4h-1.5v1.5h1.6c.3 0 .6-.3.6-.8-.1-.4-.4-.6-.7-.7zm17 .2l-.7 2.4h1.4l-.7-2.4z"/><path d="M21 77v8.8h60V77H21zm8.3 7.2h-2.7v-5.7h2.8c.9 0 1.6.5 1.6 1.4.1.6-.1 1.1-.9 1.3.6.2 1.1.8 1.1 1.5 0 .6-.5 1.5-1.9 1.5zM40 82.7c0 .4-.1.8-.5 1.1-.5.4-1.1.6-1.8.6-.6 0-1.3-.2-1.8-.6-.4-.3-.5-.7-.5-1.1v-4.2h1.2v4.2c0 .3.3.6.6.7.2.1.4.1.5.1.2 0 .4 0 .5-.1.3-.1.6-.4.6-.7v-4.2H40v4.2zm8.4 1.5c-.3 0 .1-2.3-.9-2.3h-1.4v2.3h-1.2v-5.7h2.7c.9 0 1.8.4 1.8 1.4.1 1.1-.6 1.4-1.2 1.6 1.4.3.9 1.9 1.2 2.8h-1zm9.3-3.5v1h-2.6v1.6h3v1h-4.2v-5.7h4.2v.9h-3v1.2h2.6zm8.3 3.5l-.4-1.2h-2.1l-.4 1.2H62l2-5.7h1.2l2 5.7H66zm9.5-1.5c0 .4-.1.8-.5 1.1-.5.4-1.1.6-1.8.6-.6 0-1.3-.2-1.8-.6-.4-.3-.5-.7-.5-1.1v-4.2h1.2v4.2c0 .3.3.6.6.7.2.1.4.1.5.1.2 0 .4 0 .5-.1.3-.1.6-.4.6-.7v-4.2h1.2v4.2zm-9.8 7.1l-.7 2.4h1.4z"/><path d="M21 96h60v-8.8H21V96zm50.2-5.6c0-1 .7-1.9 2.2-1.9 2.1 0 2.3 1.4 2.3 1.8h-1.1c0-.5-.3-.9-1.1-.9s-1.2.4-1.2.8c0 1 3.5.5 3.5 2.4 0 1.3-1 1.9-2.4 1.9-1.7 0-2.4-1.1-2.4-1.9h1.1c0 .5.4 1 1.2 1 .6 0 1.3-.1 1.3-.8.1-1.2-3.4-.5-3.4-2.4zm-6.1-1.7h1.2l2 5.7h-1.2l-.4-1.3h-2.1l-.4 1.3H63l2.1-5.7zm-9 0h4.6v.9H59v4.8h-1.2v-4.8h-1.7v-.9zm-4.5 0h1.2v5.7h-1.2v-5.7zm-8.8 0h2.7c.9 0 1.8.4 1.8 1.4.1 1.1-.6 1.4-1.2 1.6 1.4.3.9 1.9 1.2 2.8h-1.1c-.3 0 .1-2.3-.9-2.3h-1.4v2.3h-1.2v-5.8zm-8.3 0h4.2v.9h-3v1.2h2.6v1h-2.6v1.6h3v1h-4.2v-5.7zm-7.1 0c.4 1.4.8 3.1 1.2 4.2.4-1.2.8-2.8 1.2-4.2H31l-1.9 5.7H28l-1.9-5.7h1.3z"/><path d="M45.6 91.1c.3 0 .6-.3.6-.8 0-.4-.3-.7-.7-.7H44v1.5h1.6z"/></g></svg>